<mxfile host="Electron" agent="Mozilla/5.0 (Macintosh; Intel Mac OS X 10_15_7) AppleWebKit/537.36 (KHTML, like Gecko) draw.io/24.7.8 Chrome/128.0.6613.36 Electron/32.0.1 Safari/537.36" version="24.7.8">
  <diagram name="Page-1" id="VLgLon7HGVc0YhQWd_kw">
    <mxGraphModel dx="1941" dy="854" grid="1" gridSize="10" guides="1" tooltips="1" connect="1" arrows="1" fold="1" page="1" pageScale="1" pageWidth="827" pageHeight="1169" math="0" shadow="0">
      <root>
        <mxCell id="0" />
        <mxCell id="1" parent="0" />
        <mxCell id="C9QYniWNFZmsUueq7vX_-1" value="message queue" style="outlineConnect=0;dashed=0;verticalLabelPosition=bottom;verticalAlign=top;align=center;html=1;shape=mxgraph.aws3.queue;fillColor=#D9A741;gradientColor=none;" vertex="1" parent="1">
          <mxGeometry x="550" y="360" width="73.5" height="48" as="geometry" />
        </mxCell>
        <mxCell id="C9QYniWNFZmsUueq7vX_-2" value="API Credit Check" style="sketch=0;points=[[0,0,0],[0.25,0,0],[0.5,0,0],[0.75,0,0],[1,0,0],[0,1,0],[0.25,1,0],[0.5,1,0],[0.75,1,0],[1,1,0],[0,0.25,0],[0,0.5,0],[0,0.75,0],[1,0.25,0],[1,0.5,0],[1,0.75,0]];outlineConnect=0;fontColor=#232F3E;fillColor=#E7157B;strokeColor=#ffffff;dashed=0;verticalLabelPosition=bottom;verticalAlign=top;align=center;html=1;fontSize=12;fontStyle=0;aspect=fixed;shape=mxgraph.aws4.resourceIcon;resIcon=mxgraph.aws4.api_gateway;" vertex="1" parent="1">
          <mxGeometry x="1230" y="467" width="78" height="78" as="geometry" />
        </mxCell>
        <mxCell id="C9QYniWNFZmsUueq7vX_-5" value="pub/sub" style="edgeStyle=orthogonalEdgeStyle;rounded=0;orthogonalLoop=1;jettySize=auto;html=1;startArrow=classic;startFill=1;exitX=0;exitY=0.5;exitDx=0;exitDy=0;" edge="1" parent="1" source="C9QYniWNFZmsUueq7vX_-44" target="C9QYniWNFZmsUueq7vX_-1">
          <mxGeometry relative="1" as="geometry">
            <Array as="points">
              <mxPoint x="587" y="490" />
            </Array>
          </mxGeometry>
        </mxCell>
        <mxCell id="C9QYniWNFZmsUueq7vX_-6" style="edgeStyle=orthogonalEdgeStyle;rounded=0;orthogonalLoop=1;jettySize=auto;html=1;entryX=0;entryY=0.5;entryDx=0;entryDy=0;entryPerimeter=0;" edge="1" parent="1" source="C9QYniWNFZmsUueq7vX_-4" target="C9QYniWNFZmsUueq7vX_-2">
          <mxGeometry relative="1" as="geometry" />
        </mxCell>
        <mxCell id="C9QYniWNFZmsUueq7vX_-8" value="users" style="sketch=0;aspect=fixed;pointerEvents=1;shadow=0;dashed=0;html=1;strokeColor=none;labelPosition=center;verticalLabelPosition=bottom;verticalAlign=top;align=center;fillColor=#00188D;shape=mxgraph.azure.laptop" vertex="1" parent="1">
          <mxGeometry x="-120" y="491" width="50" height="30" as="geometry" />
        </mxCell>
        <mxCell id="C9QYniWNFZmsUueq7vX_-12" style="edgeStyle=orthogonalEdgeStyle;rounded=0;orthogonalLoop=1;jettySize=auto;html=1;" edge="1" parent="1" source="C9QYniWNFZmsUueq7vX_-9" target="C9QYniWNFZmsUueq7vX_-11">
          <mxGeometry relative="1" as="geometry" />
        </mxCell>
        <mxCell id="C9QYniWNFZmsUueq7vX_-10" value="Submit loan application" style="edgeStyle=orthogonalEdgeStyle;rounded=0;orthogonalLoop=1;jettySize=auto;html=1;entryX=0;entryY=0.5;entryDx=0;entryDy=0;entryPerimeter=0;" edge="1" parent="1" source="C9QYniWNFZmsUueq7vX_-8" target="C9QYniWNFZmsUueq7vX_-9">
          <mxGeometry relative="1" as="geometry" />
        </mxCell>
        <mxCell id="C9QYniWNFZmsUueq7vX_-17" style="edgeStyle=orthogonalEdgeStyle;rounded=0;orthogonalLoop=1;jettySize=auto;html=1;" edge="1" parent="1" source="C9QYniWNFZmsUueq7vX_-11" target="C9QYniWNFZmsUueq7vX_-14">
          <mxGeometry relative="1" as="geometry">
            <Array as="points">
              <mxPoint x="360" y="670" />
            </Array>
          </mxGeometry>
        </mxCell>
        <mxCell id="C9QYniWNFZmsUueq7vX_-18" style="edgeStyle=orthogonalEdgeStyle;rounded=0;orthogonalLoop=1;jettySize=auto;html=1;" edge="1" parent="1" source="C9QYniWNFZmsUueq7vX_-11" target="C9QYniWNFZmsUueq7vX_-16">
          <mxGeometry relative="1" as="geometry">
            <Array as="points">
              <mxPoint x="360" y="809" />
            </Array>
          </mxGeometry>
        </mxCell>
        <mxCell id="C9QYniWNFZmsUueq7vX_-21" value="publish SendEmailEvent" style="edgeStyle=orthogonalEdgeStyle;rounded=0;orthogonalLoop=1;jettySize=auto;html=1;" edge="1" parent="1" source="C9QYniWNFZmsUueq7vX_-11" target="C9QYniWNFZmsUueq7vX_-20">
          <mxGeometry relative="1" as="geometry">
            <Array as="points">
              <mxPoint x="330" y="698" />
              <mxPoint x="331" y="698" />
            </Array>
          </mxGeometry>
        </mxCell>
        <mxCell id="C9QYniWNFZmsUueq7vX_-11" value="Loan Management Service" style="rounded=0;whiteSpace=wrap;html=1;" vertex="1" parent="1">
          <mxGeometry x="294" y="476" width="120" height="60" as="geometry" />
        </mxCell>
        <mxCell id="C9QYniWNFZmsUueq7vX_-13" value="pub/sub" style="edgeStyle=orthogonalEdgeStyle;rounded=0;orthogonalLoop=1;jettySize=auto;html=1;" edge="1" parent="1" source="C9QYniWNFZmsUueq7vX_-11" target="C9QYniWNFZmsUueq7vX_-1">
          <mxGeometry relative="1" as="geometry" />
        </mxCell>
        <mxCell id="C9QYniWNFZmsUueq7vX_-29" value="publish ApplicationApproved" style="edgeStyle=orthogonalEdgeStyle;rounded=0;orthogonalLoop=1;jettySize=auto;html=1;entryX=1;entryY=0.5;entryDx=0;entryDy=0;entryPerimeter=0;exitX=0.75;exitY=1;exitDx=0;exitDy=0;" edge="1" parent="1" source="C9QYniWNFZmsUueq7vX_-11" target="C9QYniWNFZmsUueq7vX_-33">
          <mxGeometry x="0.6438" y="-10" relative="1" as="geometry">
            <Array as="points">
              <mxPoint x="384" y="610" />
              <mxPoint x="520" y="610" />
              <mxPoint x="520" y="934" />
            </Array>
            <mxPoint as="offset" />
          </mxGeometry>
        </mxCell>
        <mxCell id="C9QYniWNFZmsUueq7vX_-14" value="loan applications DB" style="sketch=0;outlineConnect=0;fontColor=#232F3E;gradientColor=none;fillColor=#C925D1;strokeColor=none;dashed=0;verticalLabelPosition=bottom;verticalAlign=top;align=center;html=1;fontSize=12;fontStyle=0;aspect=fixed;pointerEvents=1;shape=mxgraph.aws4.rds_sql_server_instance;" vertex="1" parent="1">
          <mxGeometry x="420" y="640" width="78" height="78" as="geometry" />
        </mxCell>
        <mxCell id="C9QYniWNFZmsUueq7vX_-16" value="events DB" style="sketch=0;outlineConnect=0;fontColor=#232F3E;gradientColor=none;fillColor=#C925D1;strokeColor=none;dashed=0;verticalLabelPosition=bottom;verticalAlign=top;align=center;html=1;fontSize=12;fontStyle=0;aspect=fixed;pointerEvents=1;shape=mxgraph.aws4.rds_sql_server_instance;" vertex="1" parent="1">
          <mxGeometry x="420" y="770" width="78" height="78" as="geometry" />
        </mxCell>
        <mxCell id="C9QYniWNFZmsUueq7vX_-23" value="send email" style="edgeStyle=orthogonalEdgeStyle;rounded=0;orthogonalLoop=1;jettySize=auto;html=1;entryX=0.5;entryY=1;entryDx=0;entryDy=0;entryPerimeter=0;exitX=0;exitY=0.5;exitDx=0;exitDy=0;exitPerimeter=0;" edge="1" parent="1" source="C9QYniWNFZmsUueq7vX_-50" target="C9QYniWNFZmsUueq7vX_-8">
          <mxGeometry relative="1" as="geometry">
            <mxPoint x="270.75" y="1060" as="sourcePoint" />
          </mxGeometry>
        </mxCell>
        <mxCell id="C9QYniWNFZmsUueq7vX_-25" value="SFTP server of ACME Bank" style="sketch=0;points=[[0,0,0],[0.25,0,0],[0.5,0,0],[0.75,0,0],[1,0,0],[0,1,0],[0.25,1,0],[0.5,1,0],[0.75,1,0],[1,1,0],[0,0.25,0],[0,0.5,0],[0,0.75,0],[1,0.25,0],[1,0.5,0],[1,0.75,0]];outlineConnect=0;fontColor=#232F3E;fillColor=#E7157B;strokeColor=#ffffff;dashed=0;verticalLabelPosition=bottom;verticalAlign=top;align=center;html=1;fontSize=12;fontStyle=0;aspect=fixed;shape=mxgraph.aws4.resourceIcon;resIcon=mxgraph.aws4.api_gateway;" vertex="1" parent="1">
          <mxGeometry x="1230" y="1020" width="78" height="78" as="geometry" />
        </mxCell>
        <mxCell id="C9QYniWNFZmsUueq7vX_-28" style="edgeStyle=orthogonalEdgeStyle;rounded=0;orthogonalLoop=1;jettySize=auto;html=1;" edge="1" parent="1" source="C9QYniWNFZmsUueq7vX_-26" target="C9QYniWNFZmsUueq7vX_-25">
          <mxGeometry relative="1" as="geometry" />
        </mxCell>
        <mxCell id="C9QYniWNFZmsUueq7vX_-53" value="VPC" style="points=[[0,0],[0.25,0],[0.5,0],[0.75,0],[1,0],[1,0.25],[1,0.5],[1,0.75],[1,1],[0.75,1],[0.5,1],[0.25,1],[0,1],[0,0.75],[0,0.5],[0,0.25]];outlineConnect=0;gradientColor=none;html=1;whiteSpace=wrap;fontSize=12;fontStyle=0;container=1;pointerEvents=0;collapsible=0;recursiveResize=0;shape=mxgraph.aws4.group;grIcon=mxgraph.aws4.group_vpc2;strokeColor=#8C4FFF;fillColor=none;verticalAlign=top;align=left;spacingLeft=30;fontColor=#AAB7B8;dashed=0;" vertex="1" parent="1">
          <mxGeometry x="70" y="310" width="1130" height="900" as="geometry" />
        </mxCell>
        <mxCell id="C9QYniWNFZmsUueq7vX_-54" value="subnet 1" style="points=[[0,0],[0.25,0],[0.5,0],[0.75,0],[1,0],[1,0.25],[1,0.5],[1,0.75],[1,1],[0.75,1],[0.5,1],[0.25,1],[0,1],[0,0.75],[0,0.5],[0,0.25]];outlineConnect=0;gradientColor=none;html=1;whiteSpace=wrap;fontSize=12;fontStyle=0;container=1;pointerEvents=0;collapsible=0;recursiveResize=0;shape=mxgraph.aws4.group;grIcon=mxgraph.aws4.group_vpc2;strokeColor=#FFB570;fillColor=none;verticalAlign=top;align=left;spacingLeft=30;fontColor=#AAB7B8;dashed=0;" vertex="1" parent="C9QYniWNFZmsUueq7vX_-53">
          <mxGeometry x="94" y="98" width="366" height="792" as="geometry" />
        </mxCell>
        <mxCell id="C9QYniWNFZmsUueq7vX_-9" value="API Gateway" style="sketch=0;points=[[0,0,0],[0.25,0,0],[0.5,0,0],[0.75,0,0],[1,0,0],[0,1,0],[0.25,1,0],[0.5,1,0],[0.75,1,0],[1,1,0],[0,0.25,0],[0,0.5,0],[0,0.75,0],[1,0.25,0],[1,0.5,0],[1,0.75,0]];outlineConnect=0;fontColor=#232F3E;fillColor=#E7157B;strokeColor=#ffffff;dashed=0;verticalLabelPosition=bottom;verticalAlign=top;align=center;html=1;fontSize=12;fontStyle=0;aspect=fixed;shape=mxgraph.aws4.resourceIcon;resIcon=mxgraph.aws4.api_gateway;" vertex="1" parent="C9QYniWNFZmsUueq7vX_-54">
          <mxGeometry x="-14" y="59" width="78" height="78" as="geometry" />
        </mxCell>
        <mxCell id="C9QYniWNFZmsUueq7vX_-33" value="message queue" style="outlineConnect=0;dashed=0;verticalLabelPosition=bottom;verticalAlign=top;align=center;html=1;shape=mxgraph.aws3.queue;fillColor=#D9A741;gradientColor=none;" vertex="1" parent="C9QYniWNFZmsUueq7vX_-54">
          <mxGeometry x="196" y="502" width="73.5" height="48" as="geometry" />
        </mxCell>
        <mxCell id="C9QYniWNFZmsUueq7vX_-30" value="Report Service" style="rounded=0;whiteSpace=wrap;html=1;" vertex="1" parent="C9QYniWNFZmsUueq7vX_-54">
          <mxGeometry x="172.75" y="602" width="120" height="60" as="geometry" />
        </mxCell>
        <mxCell id="C9QYniWNFZmsUueq7vX_-34" style="edgeStyle=orthogonalEdgeStyle;rounded=0;orthogonalLoop=1;jettySize=auto;html=1;entryX=0.5;entryY=0;entryDx=0;entryDy=0;" edge="1" parent="C9QYniWNFZmsUueq7vX_-54" source="C9QYniWNFZmsUueq7vX_-33" target="C9QYniWNFZmsUueq7vX_-30">
          <mxGeometry relative="1" as="geometry" />
        </mxCell>
        <mxCell id="C9QYniWNFZmsUueq7vX_-36" value="reports DB" style="sketch=0;outlineConnect=0;fontColor=#232F3E;gradientColor=none;fillColor=#C925D1;strokeColor=none;dashed=0;verticalLabelPosition=bottom;verticalAlign=top;align=center;html=1;fontSize=12;fontStyle=0;aspect=fixed;pointerEvents=1;shape=mxgraph.aws4.rds_sql_server_instance;" vertex="1" parent="C9QYniWNFZmsUueq7vX_-54">
          <mxGeometry x="193.75" y="692" width="78" height="78" as="geometry" />
        </mxCell>
        <mxCell id="C9QYniWNFZmsUueq7vX_-37" style="edgeStyle=orthogonalEdgeStyle;rounded=0;orthogonalLoop=1;jettySize=auto;html=1;" edge="1" parent="C9QYniWNFZmsUueq7vX_-54" source="C9QYniWNFZmsUueq7vX_-30" target="C9QYniWNFZmsUueq7vX_-36">
          <mxGeometry relative="1" as="geometry" />
        </mxCell>
        <mxCell id="C9QYniWNFZmsUueq7vX_-55" value="subnet 1" style="points=[[0,0],[0.25,0],[0.5,0],[0.75,0],[1,0],[1,0.25],[1,0.5],[1,0.75],[1,1],[0.75,1],[0.5,1],[0.25,1],[0,1],[0,0.75],[0,0.5],[0,0.25]];outlineConnect=0;gradientColor=none;html=1;whiteSpace=wrap;fontSize=12;fontStyle=0;container=1;pointerEvents=0;collapsible=0;recursiveResize=0;shape=mxgraph.aws4.group;grIcon=mxgraph.aws4.group_vpc2;strokeColor=#FFB570;fillColor=none;verticalAlign=top;align=left;spacingLeft=30;fontColor=#AAB7B8;dashed=0;" vertex="1" parent="C9QYniWNFZmsUueq7vX_-53">
          <mxGeometry x="580" y="98" width="520" height="722" as="geometry" />
        </mxCell>
        <mxCell id="C9QYniWNFZmsUueq7vX_-4" value="Service Connector" style="rounded=0;whiteSpace=wrap;html=1;" vertex="1" parent="C9QYniWNFZmsUueq7vX_-55">
          <mxGeometry x="300" y="280" width="120" height="60" as="geometry" />
        </mxCell>
        <mxCell id="C9QYniWNFZmsUueq7vX_-26" value="Service Connector 2" style="rounded=0;whiteSpace=wrap;html=1;" vertex="1" parent="C9QYniWNFZmsUueq7vX_-55">
          <mxGeometry x="153.75" y="422" width="120" height="60" as="geometry" />
        </mxCell>
        <mxCell id="C9QYniWNFZmsUueq7vX_-49" value="Mock Connector" style="rounded=0;whiteSpace=wrap;html=1;" vertex="1" parent="C9QYniWNFZmsUueq7vX_-55">
          <mxGeometry x="190" y="92" width="120" height="60" as="geometry" />
        </mxCell>
        <mxCell id="C9QYniWNFZmsUueq7vX_-60" style="edgeStyle=orthogonalEdgeStyle;rounded=0;orthogonalLoop=1;jettySize=auto;html=1;startArrow=classic;startFill=1;" edge="1" parent="C9QYniWNFZmsUueq7vX_-55" source="C9QYniWNFZmsUueq7vX_-44" target="C9QYniWNFZmsUueq7vX_-59">
          <mxGeometry relative="1" as="geometry" />
        </mxCell>
        <mxCell id="C9QYniWNFZmsUueq7vX_-44" value="Connector Manager" style="rounded=0;whiteSpace=wrap;html=1;" vertex="1" parent="C9QYniWNFZmsUueq7vX_-55">
          <mxGeometry x="110" y="52" width="120" height="60" as="geometry" />
        </mxCell>
        <mxCell id="C9QYniWNFZmsUueq7vX_-61" style="edgeStyle=orthogonalEdgeStyle;rounded=0;orthogonalLoop=1;jettySize=auto;html=1;entryX=0.5;entryY=0;entryDx=0;entryDy=0;startArrow=classic;startFill=1;" edge="1" parent="C9QYniWNFZmsUueq7vX_-55" source="C9QYniWNFZmsUueq7vX_-59" target="C9QYniWNFZmsUueq7vX_-4">
          <mxGeometry relative="1" as="geometry" />
        </mxCell>
        <mxCell id="C9QYniWNFZmsUueq7vX_-59" value="message queue" style="outlineConnect=0;dashed=0;verticalLabelPosition=bottom;verticalAlign=top;align=center;html=1;shape=mxgraph.aws3.queue;fillColor=#D9A741;gradientColor=none;" vertex="1" parent="C9QYniWNFZmsUueq7vX_-55">
          <mxGeometry x="177" y="232" width="73.5" height="48" as="geometry" />
        </mxCell>
        <mxCell id="C9QYniWNFZmsUueq7vX_-62" style="edgeStyle=orthogonalEdgeStyle;rounded=0;orthogonalLoop=1;jettySize=auto;html=1;entryX=0.5;entryY=1;entryDx=0;entryDy=0;entryPerimeter=0;startArrow=classic;startFill=1;" edge="1" parent="C9QYniWNFZmsUueq7vX_-55" source="C9QYniWNFZmsUueq7vX_-26" target="C9QYniWNFZmsUueq7vX_-59">
          <mxGeometry relative="1" as="geometry" />
        </mxCell>
        <mxCell id="C9QYniWNFZmsUueq7vX_-52" value="loan provider agents" style="sketch=0;aspect=fixed;pointerEvents=1;shadow=0;dashed=0;html=1;strokeColor=none;labelPosition=center;verticalLabelPosition=bottom;verticalAlign=top;align=center;fillColor=#00188D;shape=mxgraph.azure.laptop" vertex="1" parent="C9QYniWNFZmsUueq7vX_-53">
          <mxGeometry x="250" y="20" width="50" height="30" as="geometry" />
        </mxCell>
        <mxCell id="C9QYniWNFZmsUueq7vX_-57" style="edgeStyle=orthogonalEdgeStyle;rounded=0;orthogonalLoop=1;jettySize=auto;html=1;entryX=0.5;entryY=0;entryDx=0;entryDy=0;entryPerimeter=0;" edge="1" parent="C9QYniWNFZmsUueq7vX_-53" source="C9QYniWNFZmsUueq7vX_-52" target="C9QYniWNFZmsUueq7vX_-9">
          <mxGeometry relative="1" as="geometry" />
        </mxCell>
        <mxCell id="C9QYniWNFZmsUueq7vX_-20" value="message queue" style="outlineConnect=0;dashed=0;verticalLabelPosition=bottom;verticalAlign=top;align=center;html=1;shape=mxgraph.aws3.queue;fillColor=#D9A741;gradientColor=none;" vertex="1" parent="C9QYniWNFZmsUueq7vX_-53">
          <mxGeometry x="10" y="620" width="73.5" height="48" as="geometry" />
        </mxCell>
        <mxCell id="C9QYniWNFZmsUueq7vX_-22" value="trigger" style="edgeStyle=orthogonalEdgeStyle;rounded=0;orthogonalLoop=1;jettySize=auto;html=1;entryX=0.5;entryY=0;entryDx=0;entryDy=0;entryPerimeter=0;" edge="1" parent="C9QYniWNFZmsUueq7vX_-53" source="C9QYniWNFZmsUueq7vX_-20" target="C9QYniWNFZmsUueq7vX_-50">
          <mxGeometry relative="1" as="geometry">
            <mxPoint x="260.8000000000002" y="720" as="targetPoint" />
          </mxGeometry>
        </mxCell>
        <mxCell id="C9QYniWNFZmsUueq7vX_-50" value="Email Service" style="outlineConnect=0;dashed=0;verticalLabelPosition=bottom;verticalAlign=top;align=center;html=1;shape=mxgraph.aws3.lambda_function;fillColor=#F58534;gradientColor=none;" vertex="1" parent="C9QYniWNFZmsUueq7vX_-53">
          <mxGeometry x="12.25" y="760" width="69" height="72" as="geometry" />
        </mxCell>
      </root>
    </mxGraphModel>
  </diagram>
</mxfile>
